<svg width="41" height="33" viewBox="0 0 41 33" fill="none" xmlns="http://www.w3.org/2000/svg">
<path d="M12.3276 14.1045L20.274 16.64L18.488 24.7726C18.4018 25.1653 18.8808 25.5169 19.228 25.3164L24.4337 22.3109C24.555 22.2409 24.6403 22.1247 24.6711 21.988L26.6127 13.373C26.6407 13.2506 26.6215 13.1222 26.5589 13.0134C26.4963 12.9046 26.3949 12.8234 26.275 12.7862L17.8334 10.1428C17.7674 10.1222 17.6978 10.1154 17.629 10.1229C17.5602 10.1305 17.4937 10.1521 17.4337 10.1865L12.228 13.192C11.8808 13.3925 11.9475 13.9822 12.3276 14.1045Z" fill="white"/>
<path d="M1.08241 20.5969L9.02877 23.1325L7.24277 31.265C7.15658 31.6577 7.63556 32.0093 7.98284 31.8088L13.1885 28.8033C13.3098 28.7333 13.3951 28.6171 13.4258 28.4804L15.3675 19.8654C15.3955 19.743 15.3763 19.6146 15.3137 19.5058C15.2511 19.397 15.1497 19.3159 15.0298 19.2786L6.58821 16.6353C6.52217 16.6146 6.45258 16.6078 6.3838 16.6154C6.31501 16.6229 6.24853 16.6445 6.18851 16.679L0.982835 19.6845C0.635559 19.885 0.702311 20.4746 1.08241 20.5969Z" fill="white"/>
<path d="M22.6808 8.12709L30.6272 10.6626L28.8412 18.7952C28.755 19.1879 29.234 19.5395 29.5812 19.339L34.7869 16.3335C34.9082 16.2635 34.9935 16.1473 35.0242 16.0106L36.9659 7.39555C36.9939 7.2732 36.9747 7.14476 36.9121 7.03596C36.8495 6.92715 36.7481 6.84601 36.6282 6.80875L28.1866 4.16543C28.1206 4.14477 28.051 4.13799 27.9822 4.14552C27.9134 4.15304 27.8469 4.1747 27.7869 4.20913L22.5812 7.21463C22.234 7.41513 22.3007 8.00475 22.6808 8.12709Z" fill="white"/>
</svg>
