<svg width="39" height="15" viewBox="0 0 39 15" fill="none" xmlns="http://www.w3.org/2000/svg">
<path d="M13.6222 1.34781L19.2362 7.51681L13.6232 13.6668C13.3522 13.9638 13.5912 14.5078 13.9922 14.5078H20.0032C20.1432 14.5078 20.2752 14.4498 20.3702 14.3468L26.3592 7.85681C26.4447 7.76487 26.4922 7.64404 26.4924 7.51851C26.4926 7.39298 26.4454 7.27201 26.3602 7.17981L20.3712 0.669813C20.3243 0.618907 20.2674 0.578238 20.2041 0.55036C20.1408 0.522482 20.0724 0.507996 20.0032 0.507812H13.9922C13.5912 0.507812 13.3542 1.05181 13.6222 1.34781Z" fill="white"/>
<path d="M0.637327 1.34781L6.25133 7.51681L0.638326 13.6668C0.367326 13.9638 0.606326 14.5078 1.00733 14.5078H7.01833C7.15833 14.5078 7.29033 14.4498 7.38533 14.3468L13.3743 7.85681C13.4598 7.76487 13.5074 7.64404 13.5076 7.51851C13.5077 7.39298 13.4605 7.27201 13.3753 7.17981L7.38633 0.669813C7.33946 0.618907 7.28258 0.578238 7.21925 0.55036C7.15593 0.522482 7.08752 0.507996 7.01833 0.507812H1.00733C0.606326 0.507812 0.369327 1.05181 0.637327 1.34781Z" fill="white"/>
<path d="M25.577 1.34781L31.191 7.51681L25.578 13.6668C25.307 13.9638 25.546 14.5078 25.947 14.5078H31.958C32.098 14.5078 32.23 14.4498 32.325 14.3468L38.314 7.85681C38.3995 7.76487 38.4471 7.64404 38.4473 7.51851C38.4474 7.39298 38.4002 7.27201 38.315 7.17981L32.326 0.669813C32.2792 0.618907 32.2223 0.578238 32.159 0.55036C32.0956 0.522482 32.0272 0.507996 31.958 0.507812H25.947C25.546 0.507812 25.309 1.05181 25.577 1.34781Z" fill="white"/>
</svg>
